<svg width="56" height="56" viewBox="0 0 56 56" fill="none" xmlns="http://www.w3.org/2000/svg">
<path d="M49.1659 25.324V36.1647V44.6614H32.3545H20.8357H4.83594V11.3398H21.2521H31.8478" stroke="#0F0E33" stroke-width="2" stroke-linecap="round"/>
<path d="M29.1561 31.3098L21.1015 22.8359L13.0469 31.3098" stroke="#0A7AFF" stroke-width="2" stroke-linecap="square"/>
<path d="M14.3828 29.8984V39.6935H27.8225V30.2629" stroke="#0A7AFF" stroke-width="2" stroke-linecap="round"/>
<rect x="18.5312" y="34.4531" width="5.14807" height="5.2392" stroke="#0A7AFF" stroke-width="2" stroke-linecap="round"/>
<path d="M9.04688 14.5586L9.02344 14.5586" stroke="#0F0E33" stroke-width="2" stroke-linecap="round" stroke-linejoin="round"/>
<path d="M12.9609 14.5586L12.9375 14.5586" stroke="#0F0E33" stroke-width="2" stroke-linecap="round" stroke-linejoin="round"/>
<path d="M16.8828 14.5586L16.8594 14.5586" stroke="#0F0E33" stroke-width="2" stroke-linecap="round" stroke-linejoin="round"/>
<path d="M5 18H21.5284H31" stroke="#0F0E33" stroke-width="2" stroke-linecap="round" stroke-linejoin="round"/>
<circle cx="42.0184" cy="16.8466" r="11.0184" stroke="#0A7AFF" stroke-width="2" stroke-linecap="round" stroke-linejoin="round"/>
<rect x="43.1094" y="10.4102" width="6.99229" height="2.49843" transform="rotate(90 43.1094 10.4102)" stroke="#0A7AFF" stroke-width="2"/>
<path d="M40.5388 12.1641C38.0601 12.7359 36.1849 14.8854 36.0274 17.4982H34.7188V19.9966H48.9954V17.4982H47.6868C47.5346 14.9747 45.7802 12.8834 43.4273 12.2282" stroke="#0A7AFF" stroke-width="2"/>
</svg>
