<svg width="259" height="36" viewBox="0 0 259 36" fill="none" xmlns="http://www.w3.org/2000/svg">
<g clip-path="url(#clip0_980_19776)">
<path d="M8.24395 19.338V7.29608H16.7329L12.5836 0H0V36H8.24395V26.5793H12.6126L16.7329 19.338H8.24395Z" fill="#F7F6F2"/>
<path d="M17.0996 0H12.5859L16.7385 7.29608H16.8062C20.6655 7.29608 22.1453 10.3847 22.1453 13.3509C22.1453 16.317 20.6751 19.3122 16.7385 19.3412L12.6182 26.5825H17.1029C26.3592 26.5825 30.4537 20.0537 30.4537 13.3541C30.4537 6.65449 26.356 0 17.0996 0Z" fill="#0A7AFF"/>
<path d="M41.7422 2.40625H54.416C61.3413 2.40625 64.33 7.42936 64.33 12.5008C64.33 17.5723 61.3413 22.5051 54.416 22.5051H47.5358V33.5959H41.7422V2.40625ZM47.5358 7.56477V17.3434H54.1452C57.1339 17.3434 58.5364 14.8093 58.5364 12.5008C58.5364 10.1924 57.2242 7.56799 54.3257 7.56799H47.5358V7.56477Z" fill="#F7F6F2"/>
<path d="M86.6151 24.8576H70.5011C70.8622 27.6625 73.2158 29.3842 76.3399 29.3842C78.4678 29.3842 80.6408 28.4782 81.6371 26.6695C82.9493 27.3949 84.4904 28.2074 85.8477 28.9328C83.9455 32.5535 79.8735 34.0462 75.9788 34.0462C69.9595 34.0462 65.0234 29.6099 65.0234 22.9554C65.0234 16.3009 69.9563 12 75.9788 12C82.0014 12 86.7053 16.3009 86.7053 22.9554C86.7053 23.497 86.6602 24.3579 86.6151 24.8576ZM81.3179 21.1016C80.9117 18.2031 78.7386 16.6201 76.0207 16.6201C73.1223 16.6201 70.8622 18.2483 70.4528 21.1016H81.3179Z" fill="#F7F6F2"/>
<path d="M95.3353 33.5948H89.8125V12.4546H95.3353V17.4326C96.4219 13.5862 98.9108 12 101.31 12C102.802 12 103.934 12.316 104.795 12.7706L103.844 17.7485C102.531 17.1617 101.174 17.1617 100.629 17.1617C96.8732 17.1617 95.3321 20.5116 95.3321 26.1247V33.5948H95.3353Z" fill="#F7F6F2"/>
<path d="M126.108 22.3203V33.5916H120.585V21.9592C120.54 19.0156 118.863 17.3874 116.694 17.3874C114.524 17.3874 112.257 18.6996 112.257 22.3203V33.5916H106.734V12.4514H112.257V15.5755C113.434 12.9962 116.332 12.0451 118.322 12.0451C121.672 12.2257 123.89 13.4025 125.066 15.9817C127.059 12.4965 130.044 12 131.721 12C136.834 12 139.868 15.3047 139.868 21.5046V33.5916H134.39V22.0946C134.39 19.0607 132.669 17.3874 130.409 17.3874C127.92 17.3874 126.108 19.1091 126.108 22.3203V22.3203Z" fill="#F7F6F2"/>
<path d="M146.833 0.957031C148.736 0.957031 150.319 2.40464 150.319 4.26171C150.319 6.11877 148.736 7.61152 146.833 7.61152C144.931 7.61152 143.258 6.16391 143.258 4.26171C143.258 2.3595 144.889 0.957031 146.833 0.957031V0.957031ZM149.548 33.5943H144.07V12.4541H149.548V33.5943Z" fill="#F7F6F2"/>
<path d="M161.035 12.4554H165.516V16.8917H161.035V33.5956H155.557V16.8917H151.711V12.4554H155.557V4.39844H161.035V12.4554V12.4554Z" fill="#F7F6F2"/>
<path d="M191.633 7.34231H178.233L176.741 15.8055H187.332L186.471 20.7383H175.88L173.617 33.5927H168.094L173.571 2.40625H192.494L191.633 7.33908V7.34231Z" fill="#0A7AFF"/>
<path d="M189.086 33.5943L194.834 0.957031H200.086L194.338 33.5943H189.089H189.086Z" fill="#0A7AFF"/>
<path d="M199.702 23.001C200.879 16.3013 206.853 11.9102 212.876 11.9102C218.899 11.9102 223.377 16.3013 222.2 23.001C221.023 29.7006 215.004 34.1369 208.984 34.1369C202.965 34.1369 198.529 29.7006 199.706 23.001H199.702ZM216.903 23.001C217.535 19.3803 215.271 16.7979 212.015 16.7979C208.759 16.7979 205.635 19.3771 205 23.001C204.364 26.7119 206.583 29.246 209.842 29.246C213.102 29.246 216.271 26.7119 216.903 23.001Z" fill="#0A7AFF"/>
<path d="M252.504 12.4531H258.162L246.846 33.5934H242.409L240.056 19.1527L232.769 33.5934H228.378L224.258 12.4531H229.916L231.999 26.1232L238.879 12.4531H243.541L245.624 26.1232L252.504 12.4531V12.4531Z" fill="#0A7AFF"/>
</g>
<defs>
<clipPath id="clip0_980_19776">
<rect width="258.161" height="36" fill="white"/>
</clipPath>
</defs>
</svg>
