<svg width="36" height="36" viewBox="0 0 36 36" fill="none" xmlns="http://www.w3.org/2000/svg">
<g id="Helmet v2">
<g id="Group 1437254068">
<path id="Vector" d="M30.2539 5.99554H0.75V35.4995H30.2539V5.99554Z" fill="#F7F6F2"/>
<path id="Vector_2" d="M8.42578 17.9863L8.78979 23.1446C9.12392 27.8789 13.1249 31.5489 17.8711 31.5489C22.6172 31.5489 26.6183 27.8789 26.9524 23.1446L27.3164 17.9863" stroke="#0F0E33" stroke-width="1.25"/>
<path id="Vector_3" d="M19.8211 25.6483H15.7643" stroke="#0F0E33" stroke-width="1.25" stroke-linecap="square"/>
<path id="Vector_4" d="M8.62989 18.4102C6.50649 18.4102 4.78516 20.1316 4.78516 22.2549C4.78516 24.3783 6.50649 26.0997 8.62989 26.0997H9.27263" stroke="#0F0E33" stroke-width="1.25"/>
<path id="Vector_5" d="M27.112 18.4102C29.2354 18.4102 30.9567 20.1316 30.9567 22.2549C30.9567 24.3783 29.2354 26.0997 27.112 26.0997H26.4916" stroke="#0F0E33" stroke-width="1.25"/>
<path id="Vector_6" d="M19.9507 13.3916V1.74945L15.7908 1.74945V13.3916H19.9507Z" stroke="#0A7AFF" stroke-width="1.25"/>
<path id="Vector_7" d="M15.6759 4.67206C11.5489 5.62422 8.42668 9.20312 8.16446 13.5534H5.9856V17.7133H29.7562V13.5534H27.5774C27.3241 9.35182 24.4029 5.86977 20.4854 4.77886" stroke="#0A7AFF" stroke-width="1.25"/>
</g>
</g>
</svg>
