<svg width="56" height="56" viewBox="0 0 56 56" fill="none" xmlns="http://www.w3.org/2000/svg">
<path d="M5.08154 17.7422H16.1893H25.1378" stroke="#0F0E33" stroke-width="2" stroke-linecap="round" stroke-linejoin="round"/>
<path d="M31.0815 17.7422H42.1893H51.1378" stroke="#0F0E33" stroke-width="2" stroke-linecap="round" stroke-linejoin="round"/>
<path d="M14.0278 31.3017L14.0278 44.2853" stroke="#0A7AFF" stroke-width="2" stroke-linecap="round" stroke-linejoin="round"/>
<path d="M42.2412 31.3017L42.2412 44.2853" stroke="#0A7AFF" stroke-width="2" stroke-linecap="round" stroke-linejoin="round"/>
<path d="M17.4219 30.758L17.4219 44.3317" stroke="#0A7AFF" stroke-width="2" stroke-linecap="round" stroke-linejoin="round"/>
<path d="M22.499 30.7579L22.499 44.3623" stroke="#0A7AFF" stroke-width="2" stroke-linecap="round" stroke-linejoin="round"/>
<path d="M22.5137 36.7778H33.4652" stroke="#0A7AFF" stroke-width="2" stroke-linecap="round" stroke-linejoin="round"/>
<path d="M25.2231 33.5153L25.1997 33.5153" stroke="#0A7AFF" stroke-width="2" stroke-linecap="round" stroke-linejoin="round"/>
<path d="M28.1968 33.5153L28.1733 33.5153" stroke="#0A7AFF" stroke-width="2" stroke-linecap="round" stroke-linejoin="round"/>
<path d="M31.1704 33.5153L31.147 33.5153" stroke="#0A7AFF" stroke-width="2" stroke-linecap="round" stroke-linejoin="round"/>
<path d="M18.4521 23.1426H38.3246" stroke="#0A7AFF" stroke-width="2" stroke-linecap="round" stroke-linejoin="round"/>
<path d="M38.9482 31.0482L38.9483 43.8968" stroke="#0A7AFF" stroke-width="2" stroke-linecap="round" stroke-linejoin="round"/>
<path d="M33.8716 30.9764L33.8716 44.3633" stroke="#0A7AFF" stroke-width="2" stroke-linecap="round" stroke-linejoin="round"/>
<path d="M38.9482 26.6962H17.4219V20.8939L28.1851 16.8939L38.9482 20.8939V26.6962Z" stroke="#0A7AFF" stroke-width="2" stroke-linecap="round"/>
<rect x="12.6499" y="26.6962" width="30.6066" height="4.06152" stroke="#0A7AFF" stroke-width="2" stroke-linecap="round"/>
<path d="M31.5956 44.6607H51.167V36.164V11.3234H35.5M27.1112 11.3392H21.9912H4.83301V44.6607H41.1945" stroke="#0F0E33" stroke-width="2" stroke-linecap="round"/>
<path d="M9.04688 14.5601L9.02344 14.5601" stroke="#0F0E33" stroke-width="2" stroke-linecap="round" stroke-linejoin="round"/>
<path d="M12.9634 14.5601L12.9399 14.5601" stroke="#0F0E33" stroke-width="2" stroke-linecap="round" stroke-linejoin="round"/>
<path d="M16.8799 14.5601L16.8564 14.5601" stroke="#0F0E33" stroke-width="2" stroke-linecap="round" stroke-linejoin="round"/>
<path d="M28.2432 16.4336L28.2432 9.28955" stroke="#0A7AFF" stroke-width="2" stroke-linecap="round" stroke-linejoin="round"/>
<path d="M28.4609 9.28955H34.9884L34.5533 12.4444L34.9884 14.7653H28.8599" stroke="#0A7AFF" stroke-width="2" stroke-linecap="round"/>
</svg>
