<svg width="56" height="56" viewBox="0 0 56 56" fill="none" xmlns="http://www.w3.org/2000/svg">
<path d="M29.5956 44.6609H49.167V39.1642M39.1945 44.6609H2.83301V11.3394H19.9912H28.1112H49.167V23.7518" stroke="#0F0E33" stroke-width="2" stroke-linecap="round"/>
<path d="M7.58496 38.7693L16.0349 38.7693L16.2569 38.7693L20.4096 34.6021L20.4095 24.4043L7.58496 24.4043L7.58496 38.7693Z" stroke="#0A7AFF" stroke-width="2" stroke-linecap="round"/>
<path d="M19.5561 35.4671C19.8711 35.1521 19.648 34.6135 19.2026 34.6135L16.2539 34.6135L16.2539 37.5622C16.2539 38.0076 16.7925 38.2307 17.1074 37.9157L19.5561 35.4671Z" stroke="#0A7AFF" stroke-width="2" stroke-linecap="round"/>
<path d="M24.585 38.7693L33.0349 38.7693L33.2569 38.7693L37.4096 34.6021L37.4095 24.4043L24.585 24.4043L24.585 38.7693Z" stroke="#0A7AFF" stroke-width="2" stroke-linecap="round"/>
<path d="M36.5561 35.4671C36.8711 35.1521 36.648 34.6135 36.2026 34.6135L33.2539 34.6135L33.2539 37.5622C33.2539 38.0076 33.7925 38.2307 34.1074 37.9157L36.5561 35.4671Z" stroke="#0A7AFF" stroke-width="2" stroke-linecap="round"/>
<path d="M41.585 38.7693L50.0349 38.7693L50.2569 38.7693L54.4096 34.6021L54.4095 24.4043L41.585 24.4043L41.585 38.7693Z" stroke="#0A7AFF" stroke-width="2" stroke-linecap="round"/>
<path d="M53.5561 35.4671C53.8711 35.1521 53.648 34.6135 53.2026 34.6135L50.2539 34.6135L50.2539 37.5622C50.2539 38.0076 50.7925 38.2307 51.1074 37.9157L53.5561 35.4671Z" stroke="#0A7AFF" stroke-width="2" stroke-linecap="round"/>
<path d="M7.04688 14.5601L7.02344 14.5601" stroke="#0F0E33" stroke-width="2" stroke-linecap="round" stroke-linejoin="round"/>
<path d="M10.9634 14.5601L10.9399 14.5601" stroke="#0F0E33" stroke-width="2" stroke-linecap="round" stroke-linejoin="round"/>
<path d="M14.8799 14.5601L14.8564 14.5601" stroke="#0F0E33" stroke-width="2" stroke-linecap="round" stroke-linejoin="round"/>
<path d="M3.08154 17.7422H28.5889H49.1378" stroke="#0F0E33" stroke-width="2" stroke-linecap="round" stroke-linejoin="round"/>
</svg>
