<svg width="36" height="35" viewBox="0 0 36 35" fill="none" xmlns="http://www.w3.org/2000/svg">
<g id="News v2">
<path id="Vector" d="M30.625 5H0V30.625H30.625V5Z" fill="#F7F6F2"/>
<g id="Clip path group">
<mask id="mask0_2966_3710" style="mask-type:luminance" maskUnits="userSpaceOnUse" x="1" y="0" width="35" height="35">
<g id="clip0_2910_1967">
<path id="Vector_2" d="M36 35L1 35L1 0L36 3.0598e-06L36 35Z" fill="white"/>
</g>
</mask>
<g mask="url(#mask0_2966_3710)">
<g id="Group">
<path id="Vector_3" d="M31.4587 25.1026V27.9131H20.4766H12.9519H2.5V7.08713H13.2239L31.3544 6.875V9.375" stroke="#0F0E33" stroke-linecap="round"/>
<path id="Vector_4" d="M5.65436 9.10007H5.63971" stroke="#0F0E33" stroke-linecap="round" stroke-linejoin="round"/>
<path id="Vector_5" d="M8.10215 9.10007H8.08746" stroke="#0F0E33" stroke-linecap="round" stroke-linejoin="round"/>
<path id="Vector_6" d="M10.55 9.10007H10.5353" stroke="#0F0E33" stroke-linecap="round" stroke-linejoin="round"/>
<path id="Vector_7" d="M3.17584 11.0889H17.0508" stroke="#0F0E33" stroke-linecap="round" stroke-linejoin="round"/>
<path id="Vector_8" d="M33.092 9.58713H16.8029V23.0538C16.8029 24.0778 15.973 24.908 14.949 24.9084H31.7795C32.5044 24.9084 33.092 24.3208 33.092 23.5959V9.58713Z" stroke="#0A7AFF"/>
<path id="Vector_9" d="M14.9474 24.9084C12.588 24.9075 12.1097 24.9084 14.9474 24.9084Z" stroke="#0A7AFF"/>
<path id="Vector_10" d="M20.678 15.0326H29.7439" stroke="#0A7AFF" stroke-linecap="square" stroke-linejoin="round"/>
<path id="Vector_11" d="M20.678 18.5138H29.7439" stroke="#0A7AFF" stroke-linecap="square" stroke-linejoin="round"/>
<path id="Vector_12" d="M20.678 21.9946H29.7439" stroke="#0A7AFF" stroke-linecap="square" stroke-linejoin="round"/>
<path id="Vector_13" d="M15.8849 24.9086H13.2706C12.2351 24.9086 11.3956 24.0691 11.3956 23.0336V13.1879H17.0313" stroke="#0A7AFF"/>
</g>
</g>
</g>
</g>
</svg>
