<svg width="56" height="56" viewBox="0 0 56 56" fill="none" xmlns="http://www.w3.org/2000/svg">
<path d="M28 42.625V46.125" stroke="#0A7AFF" stroke-width="2"/>
<circle cx="28" cy="48.125" r="2" stroke="#0A7AFF" stroke-width="2"/>
<path d="M21.2362 47.375H11" stroke="#0A7AFF" stroke-width="2" stroke-linecap="square"/>
<path d="M45.2362 47.375H35" stroke="#0A7AFF" stroke-width="2" stroke-linecap="square"/>
<path d="M45.3925 27.0652V29.3733H11.1562V20.4375H36.2095H45.3925V27.1164" stroke="#0F0E33" stroke-width="2"/>
<path d="M15.9982 25.375H20.2344" stroke="#0A7AFF" stroke-width="2" stroke-linecap="square"/>
<circle r="1" transform="matrix(-1 0 0 1 39.3906 25.125)" fill="#0A7AFF"/>
<circle r="1" transform="matrix(-1 0 0 1 35.3906 25.125)" fill="#0A7AFF"/>
<path d="M45.3925 40.0652V42.3733H11.1562V33.4375H36.2095H45.3925V40.1164" stroke="#0F0E33" stroke-width="2"/>
<path d="M40.3925 38.375H36.1562" stroke="#0A7AFF" stroke-width="2" stroke-linecap="square"/>
<circle cx="17" cy="38.125" r="1" fill="#0A7AFF"/>
<circle cx="21" cy="38.125" r="1" fill="#0A7AFF"/>
<path d="M45.3925 14.0652V16.3733H11.1562V7.4375H36.2095H45.3925V14.1164" stroke="#0F0E33" stroke-width="2"/>
<path d="M39.3925 12.375H35.1562" stroke="#0A7AFF" stroke-width="2" stroke-linecap="square"/>
<circle cx="16" cy="12.125" r="1" fill="#0A7AFF"/>
<circle cx="20" cy="12.125" r="1" fill="#0A7AFF"/>
</svg>
