<svg width="37" height="35" viewBox="0 0 37 35" fill="none" xmlns="http://www.w3.org/2000/svg">
<path d="M0 11.1094V31.8907H10.6586H18.332H29.5313V26.5916V11.1094H15.5607H10.9359H0Z" fill="#F7F6F2"/>
<path d="M19.5396 28.1833H31.7571V22.8792V12.9906M22.9827 7.38223H13.5441H2.83301V28.1833H6.17996" stroke="#0F0E33" stroke-linecap="round"/>
<path d="M19.5764 14.6616L10.4876 14.6616L10.2944 14.6616L6.68262 18.286L6.68262 32.3742L16.1737 32.3742L19.5764 32.3741L19.5764 16.4674L19.5764 14.6616Z" stroke="#0A7AFF"/>
<path d="M7.53629 17.4228C7.22131 17.7377 7.44439 18.2763 7.88985 18.2763L10.2973 18.2763L10.2973 15.8689C10.2973 15.4234 9.75869 15.2004 9.4437 15.5153L7.53629 17.4228Z" stroke="#0A7AFF"/>
<path d="M10.0747 21.6304H16.4943" stroke="#0A7AFF" stroke-linecap="square"/>
<path d="M10.0747 24.0811H16.4943" stroke="#0A7AFF" stroke-linecap="square"/>
<path d="M10.0747 26.5783H13.9972" stroke="#0A7AFF" stroke-linecap="square"/>
<path d="M5.4635 9.39276L5.44006 9.39276" stroke="#0F0E33" stroke-linecap="round" stroke-linejoin="round"/>
<path d="M7.90839 9.39276L7.88495 9.39276" stroke="#0F0E33" stroke-linecap="round" stroke-linejoin="round"/>
<path d="M10.3533 9.39276L10.3298 9.39276" stroke="#0F0E33" stroke-linecap="round" stroke-linejoin="round"/>
<path d="M2.98792 11.3794H13.725H22.3748" stroke="#0F0E33" stroke-linecap="round" stroke-linejoin="round"/>
<path d="M27.489 4.69205L21.8552 8.41828L22.2587 9.82126C23.1276 12.8416 24.9232 15.5127 27.3919 17.4575L27.489 17.534L27.5861 17.4575C30.055 15.5127 31.8506 12.8415 32.7195 9.82116L33.123 8.41828L27.489 4.69205Z" stroke="#0A7AFF" stroke-linecap="round"/>
<path d="M25.9979 10.5309L27.3029 11.9808L29.4363 9.49527" stroke="#0A7AFF" stroke-linecap="square"/>
</svg>
