<svg width="56" height="56" viewBox="0 0 56 56" fill="none" xmlns="http://www.w3.org/2000/svg">
<rect x="2" y="6.17188" width="34.4252" height="49.1788" fill="#F7F6F2"/>
<path d="M42.3906 41.6505L42.3906 28.2155M17.5094 48.6094L12.6414 48.6094C10.6591 48.6094 9.05214 47.0024 9.05214 45.0201L9.05214 1.00213L42.3906 1.00213L42.3906 4.94798" stroke="#0F0F35" stroke-width="2"/>
<path d="M14.8516 28.6055H22.5717" stroke="#017AFF" stroke-width="2" stroke-linecap="square" stroke-linejoin="round"/>
<path d="M14.8516 33.9688H29.9888" stroke="#0F0F35" stroke-width="2" stroke-linecap="square" stroke-linejoin="round"/>
<path d="M12.576 41.4254C14.5598 41.4254 16.168 43.0336 16.168 45.0174C16.168 47.0012 14.5598 48.6094 12.576 48.6094L43.7781 48.6094C45.757 48.6036 47.3594 46.9976 47.3594 45.0174C47.3594 43.0371 45.757 41.4312 43.7781 41.4254" stroke="#0F0F35" stroke-width="2"/>
<path d="M42.3861 4.39844L31.7656 11.4228L33.4467 17.2666C34.4862 20.8801 36.6344 24.076 39.5882 26.4028L42.3861 28.6069L45.184 26.4028C48.1378 24.076 50.2862 20.8801 51.3257 17.2664L53.0067 11.4228L42.3861 4.39844Z" stroke="#017AFF" stroke-width="2" stroke-linecap="round"/>
<path d="M39.5703 15.4054L42.0303 18.1386L46.052 13.4531" stroke="#017AFF" stroke-width="2" stroke-linecap="square"/>
</svg>
