<svg width="56" height="56" viewBox="0 0 56 56" fill="none" xmlns="http://www.w3.org/2000/svg">
<path d="M51.1699 20.324V36.1647V44.6614H33.5985H21.559H4.83594V11.3398H21.9942H38.1141" stroke="#0F0E33" stroke-width="2" stroke-linecap="round"/>
<path d="M9.04688 14.5586L9.02344 14.5586" stroke="#0F0E33" stroke-width="2" stroke-linecap="round" stroke-linejoin="round"/>
<path d="M12.9609 14.5586L12.9375 14.5586" stroke="#0F0E33" stroke-width="2" stroke-linecap="round" stroke-linejoin="round"/>
<path d="M16.8828 14.5586L16.8594 14.5586" stroke="#0F0E33" stroke-width="2" stroke-linecap="round" stroke-linejoin="round"/>
<path d="M5.07812 17.7422H26.728H39.1344" stroke="#0F0E33" stroke-width="2" stroke-linecap="round" stroke-linejoin="round"/>
<path d="M28.1561 31.3098L20.1015 22.8359L12.0469 31.3098" stroke="#0F0E33" stroke-width="2" stroke-linecap="square"/>
<path d="M13.3828 30.8984V39.6935H26.8225V31.2629" stroke="#0F0E33" stroke-width="2" stroke-linecap="square"/>
<rect x="17.5312" y="34.4531" width="5.14807" height="5.2392" stroke="#0F0E33" stroke-width="2" stroke-linecap="square"/>
<path d="M45.7266 31.1211L45.7266 37.5031L36.2473 37.5031" stroke="#0A7AFF" stroke-width="2" stroke-linecap="square"/>
<path d="M36 35L34.0154 37.5026L36 40" stroke="#0A7AFF" stroke-width="2" stroke-linecap="square"/>
<path d="M33.6719 31.1758H40.0538V26.6966" stroke="#0F0E33" stroke-width="2" stroke-linecap="square"/>
<path d="M42.5078 26.4922L40.0052 24.5076L37.5078 26.4922" stroke="#0F0E33" stroke-width="2" stroke-linecap="square"/>
<path d="M54.1561 11.3098L46.1015 2.83594L38.0469 11.3098" stroke="#0A7AFF" stroke-width="2" stroke-linecap="square"/>
<path d="M39.3828 10.8984V19.6935H52.8225V11.2629" stroke="#0A7AFF" stroke-width="2" stroke-linecap="square"/>
<rect x="43.5312" y="14.4531" width="5.14807" height="5.2392" stroke="#0A7AFF" stroke-width="2" stroke-linecap="square"/>
</svg>
