<svg width="32" height="32" viewBox="0 0 32 32" fill="none" xmlns="http://www.w3.org/2000/svg">
<path d="M31.8473 11.0851C31.6972 10.7235 31.442 10.4142 31.1142 10.1967C30.7868 9.97939 30.4014 9.86386 30.0075 9.86492H21.5646L17.8306 1.20062C17.6247 0.722876 17.238 0.344776 16.754 0.147654C16.27 -0.0492178 15.7276 -0.0492178 15.2435 0.147654C14.7595 0.344789 14.3728 0.72291 14.1669 1.20062L10.4345 9.86492H1.99156H1.99183C1.46354 9.86492 0.95686 10.0732 0.583494 10.4444C0.209874 10.8154 0 11.3186 0 11.8435C0 12.3681 0.209874 12.8715 0.583494 13.2425L6.71151 19.33L4.14369 29.5415C4.01701 30.046 4.09515 30.5795 4.3613 31.0269C4.62744 31.4745 5.05997 31.8001 5.56564 31.9331C6.07154 32.0664 6.60942 31.9965 7.06382 31.7384L16.0003 26.6641L24.9382 31.7399C25.3926 31.9975 25.9308 32.0672 26.4361 31.9336C26.9417 31.8001 27.374 31.4744 27.6399 31.0269C27.9055 30.5794 27.9834 30.0457 27.8567 29.5415L25.2889 19.3299L31.4153 13.2428V13.2425C31.6947 12.9661 31.8849 12.6134 31.9619 12.2292C32.0387 11.845 31.9987 11.4467 31.847 11.0851L31.8473 11.0851Z" fill="#F8AE0B"/>
</svg>
