<svg width="38" height="35" viewBox="0 0 38 35" fill="none" xmlns="http://www.w3.org/2000/svg">
<g id="Icons/Tasks v1">
<path id="Vector" d="M30.5196 9.28552H0.519592V30.5355H30.5196V9.28552Z" fill="#F7F6F2"/>
<g id="Group 1437254070">
<g id="Group 1437254069">
<path id="Rectangle 12878" d="M20.7384 27.6608L33.1013 27.6608L33.1013 24.1886M26.8019 27.6608L3.83301 27.6608L3.83301 6.61224L14.6715 6.61224L19.8008 6.61224L33.1013 6.61224L33.1013 14.4529" stroke="#0F0E33" stroke-linecap="round"/>
</g>
<g id="Group 1437253772">
<path id="Rectangle 12760" d="M6.83466 23.9393L12.1723 23.9393L12.3126 23.9393L14.9357 21.307L14.9357 14.8652L6.83466 14.8652L6.83466 23.9393Z" stroke="#0A7AFF" stroke-linecap="round"/>
<path id="Rectangle 12775" d="M14.0824 22.1676C14.3973 21.8526 14.1743 21.314 13.7288 21.314L12.3108 21.314L12.3108 22.732C12.3108 23.1775 12.8494 23.4006 13.1643 23.0856L14.0824 22.1676Z" stroke="#0A7AFF" stroke-linecap="round"/>
</g>
<g id="Group 1437253863">
<path id="Rectangle 12760_2" d="M17.5732 23.9393L22.9108 23.9393L23.0511 23.9393L25.6742 21.307L25.6742 14.8652L17.5732 14.8652L17.5732 23.9393Z" stroke="#0A7AFF" stroke-linecap="round"/>
<path id="Rectangle 12775_2" d="M24.8206 22.1676C25.1356 21.8526 24.9125 21.314 24.467 21.314L23.049 21.314L23.049 22.732C23.049 23.1775 23.5876 23.4006 23.9026 23.0856L24.8206 22.1676Z" stroke="#0A7AFF" stroke-linecap="round"/>
</g>
<g id="Group 1437253864">
<path id="Rectangle 12760_3" d="M28.3121 23.9393L33.6497 23.9393L33.79 23.9393L36.4131 21.307L36.4131 14.8652L28.3121 14.8652L28.3121 23.9393Z" stroke="#0A7AFF" stroke-linecap="round"/>
<path id="Rectangle 12775_3" d="M35.5595 22.1676C35.8745 21.8526 35.6514 21.314 35.2059 21.314L33.7879 21.314L33.7879 22.732C33.7879 23.1775 34.3265 23.4006 34.6415 23.0856L35.5595 22.1676Z" stroke="#0A7AFF" stroke-linecap="round"/>
</g>
<g id="Group 1437253862">
<path id="Vector 146" d="M6.49493 8.64688L6.4715 8.64688" stroke="#0F0E33" stroke-linecap="round" stroke-linejoin="round"/>
<path id="Vector 157" d="M8.96893 8.64688L8.9455 8.64688" stroke="#0F0E33" stroke-linecap="round" stroke-linejoin="round"/>
<path id="Vector 158" d="M11.4431 8.64688L11.4196 8.64688" stroke="#0F0E33" stroke-linecap="round" stroke-linejoin="round"/>
</g>
<path id="Vector 156" d="M3.98981 10.6568L20.1023 10.6568L33.0827 10.6568" stroke="#0F0E33" stroke-linecap="round" stroke-linejoin="round"/>
</g>
</g>
</svg>
