<svg width="18" height="15" viewBox="0 0 18 15" fill="none" xmlns="http://www.w3.org/2000/svg">
<path fill-rule="evenodd" clip-rule="evenodd" d="M18 1.77474C17.3375 2.0759 16.6266 2.28015 15.8798 2.37133C16.6424 1.90282 17.2261 1.1597 17.5028 0.276936C16.7875 0.710806 15.9978 1.02585 15.1565 1.19664C14.4828 0.459276 13.5244 0 12.4615 0C10.4223 0 8.76881 1.69628 8.76881 3.78721C8.76881 4.08376 8.80143 4.3734 8.86443 4.65037C5.79601 4.49225 3.07515 2.98407 1.25412 0.692339C0.935796 1.25086 0.754707 1.90165 0.754707 2.59634C0.754707 3.91068 1.40709 5.07039 2.39692 5.74888C1.79177 5.72812 1.22262 5.55733 0.724354 5.27346V5.32077C0.724354 7.15552 1.99762 8.68678 3.68592 9.03529C3.37659 9.12068 3.05042 9.168 2.71297 9.168C2.47453 9.168 2.24394 9.14377 2.01786 9.0976C2.488 10.6035 3.85127 11.6986 5.46648 11.7286C4.20333 12.7441 2.61062 13.3476 0.880707 13.3476C0.582648 13.3476 0.289059 13.3291 0 13.2956C1.63433 14.3723 3.57459 15 5.65995 15C12.4525 15 16.1655 9.22801 16.1655 4.22226L16.1531 3.73184C16.8786 3.20099 17.5062 2.53403 18 1.77474Z" fill="white"/>
</svg>
