<svg width="728" height="3601" viewBox="0 0 728 3601" fill="none" xmlns="http://www.w3.org/2000/svg">
<path d="M437 3600L582 3473.08" stroke="#75BAF9"/>
<path d="M0 3527.47L146 3400.55" stroke="#75BAF9"/>
<path d="M4.5 3400.55L146 3400.55" stroke="#75BAF9"/>
<path d="M0 3527.47L146 3527.47" stroke="#75BAF9"/>
<path d="M582 3210.16L728 3083.24" stroke="#75BAF9"/>
<path d="M582 3083.24L727 3083.24" stroke="#75BAF9"/>
<path d="M291 3000L436 3000" stroke="#75BAF9"/>
<path d="M291 2871.43L436 2871.43" stroke="#75BAF9"/>
<path d="M582 3210.16L728 3210.16" stroke="#75BAF9"/>
<path d="M436 3473.07L582 3473.07" stroke="#75BAF9"/>
<path d="M0 3400.55L146 3273.62" stroke="#75BAF9"/>
<path d="M0 3273.63L146 3273.62" stroke="#75BAF9"/>
<path d="M0 3400.55L146 3400.55" stroke="#75BAF9"/>
<line x1="145.5" y1="3600" x2="145.5" y2="3000" stroke="#75BAF9"/>
<line x1="436.5" y1="3600" x2="436.5" y2="3000" stroke="#75BAF9"/>
<line x1="290.5" y1="3600" x2="290.5" y2="3000" stroke="#75BAF9"/>
<line x1="581.5" y1="3600" x2="581.5" y2="3000" stroke="#75BAF9"/>
<path d="M582 1702.75L728 1575.82" stroke="#75BAF9"/>
<path d="M586.5 1575.82L728 1575.82" stroke="#75BAF9"/>
<path d="M582 1702.75L728 1702.75" stroke="#75BAF9"/>
<path d="M582 1575.82L728 1448.9" stroke="#75BAF9"/>
<path d="M582 1448.9L728 1448.9" stroke="#75BAF9"/>
<path d="M290 1200L436 1200" stroke="#75BAF9"/>
<path d="M290 1326.92L436 1326.92" stroke="#75BAF9"/>
<path d="M290 1071.43L436 1071.43" stroke="#75BAF9"/>
<path d="M436 726.922L581 726.922" stroke="#75BAF9"/>
<path d="M436 600L581 600" stroke="#75BAF9"/>
<path d="M582 1575.82L728 1575.82" stroke="#75BAF9"/>
<path d="M145.5 1832.14L290.5 1705.22" stroke="#75BAF9"/>
<path d="M291 1326.92L437 1200" stroke="#75BAF9"/>
<line x1="145.5" y1="1800" x2="145.5" y2="1200" stroke="#75BAF9"/>
<line x1="436.5" y1="1800" x2="436.5" y2="1200" stroke="#75BAF9"/>
<line x1="290.5" y1="1800" x2="290.5" y2="1200" stroke="#75BAF9"/>
<line x1="581.5" y1="1800" x2="581.5" y2="1200" stroke="#75BAF9"/>
<path d="M0 790.383L145 663.46" stroke="#75BAF9"/>
<path d="M0 918.133L145 790.386" stroke="#75BAF9"/>
<path d="M0 663.461L146 663.461" stroke="#75BAF9"/>
<path d="M0 790.383L146 790.383" stroke="#75BAF9"/>
<path d="M0 918.133L146 918.133" stroke="#75BAF9"/>
<path d="M290 1200L437 1071.43" stroke="#75BAF9"/>
<path d="M436 726.922L582 599.999" stroke="#75BAF9"/>
<line x1="145.5" y1="1200" x2="145.5" y2="600" stroke="#75BAF9"/>
<line x1="436.5" y1="1200" x2="436.5" y2="600" stroke="#75BAF9"/>
<line x1="290.5" y1="1200" x2="290.5" y2="600" stroke="#75BAF9"/>
<line x1="581.5" y1="1200" x2="581.5" y2="600" stroke="#75BAF9"/>
<path d="M581 215.109L727 88.1863" stroke="#75BAF9"/>
<path d="M582 88.1875L727 88.1875" stroke="#75BAF9"/>
<path d="M581 215.109L727 215.109" stroke="#75BAF9"/>
<path d="M145.5 126.922L290.5 -0.00119816" stroke="#75BAF9"/>
<path d="M436 600L582 473.077" stroke="#75BAF9"/>
<line x1="145.5" y1="600" x2="145.5" y2="-1.85573e-08" stroke="#75BAF9"/>
<line x1="436.5" y1="600" x2="436.5" y2="-1.85573e-08" stroke="#75BAF9"/>
<line x1="290.5" y1="600" x2="290.5" y2="-1.85573e-08" stroke="#75BAF9"/>
<line x1="581.5" y1="600" x2="581.5" y2="-1.85573e-08" stroke="#75BAF9"/>
<path d="M582 2695.05L728 2568.13" stroke="#75BAF9"/>
<path d="M586.5 2568.13L728 2568.13" stroke="#75BAF9"/>
<path d="M582 2695.05L728 2695.05" stroke="#75BAF9"/>
<path d="M582 2568.13L728 2441.21" stroke="#75BAF9"/>
<path d="M582 2441.21L728 2441.21" stroke="#75BAF9"/>
<path d="M145 2400L437 2400" stroke="#75BAF9"/>
<path d="M291 2273.07L437 2273.07" stroke="#75BAF9"/>
<path d="M145 2526.92L290 2526.92" stroke="#75BAF9"/>
<path d="M582 2568.13L728 2568.13" stroke="#75BAF9"/>
<path d="M290 3000L436 2871.43" stroke="#75BAF9"/>
<path d="M145 2526.92L437 2273.08" stroke="#75BAF9"/>
<line x1="145.5" y1="3000" x2="145.5" y2="2400" stroke="#75BAF9"/>
<line x1="436.5" y1="3000" x2="436.5" y2="2400" stroke="#75BAF9"/>
<line x1="290.5" y1="3000" x2="290.5" y2="2400" stroke="#75BAF9"/>
<line x1="581.5" y1="3000" x2="581.5" y2="2400" stroke="#75BAF9"/>
<path d="M582 1996.98L728 1870.06" stroke="#75BAF9"/>
<path d="M582 1870.06L728 1870.06" stroke="#75BAF9"/>
<path d="M145 1959.07L291 1959.07" stroke="#75BAF9"/>
<path d="M145 1832.14L291 1832.14" stroke="#75BAF9"/>
<path d="M145 1705.22L291 1705.22" stroke="#75BAF9"/>
<path d="M582 1996.98L728 1996.98" stroke="#75BAF9"/>
<path d="M146 1959.07L291 1832.14" stroke="#75BAF9"/>
<line x1="145.5" y1="2400" x2="145.5" y2="1800" stroke="#75BAF9"/>
<line x1="436.5" y1="2400" x2="436.5" y2="1800" stroke="#75BAF9"/>
<line x1="290.5" y1="2400" x2="290.5" y2="1800" stroke="#75BAF9"/>
<line x1="581.5" y1="2400" x2="581.5" y2="1800" stroke="#75BAF9"/>
</svg>
