<svg width="158" height="165" viewBox="0 0 158 165" fill="none" xmlns="http://www.w3.org/2000/svg">
<rect width="158" height="165" fill="white"/>
<path d="M52.924 60H56.944C57.904 60 58.672 59.7 59.176 59.172C59.608 58.74 59.86 58.14 59.86 57.432C59.86 56.256 59.08 55.536 57.988 55.284V55.248C58.948 54.972 59.5 54.348 59.5 53.376C59.5 52.728 59.272 52.212 58.9 51.828C58.396 51.324 57.688 51.072 56.764 51.072H52.924V60ZM54.148 54.876V52.128H56.74C57.7 52.128 58.264 52.62 58.264 53.46C58.264 54.36 57.64 54.876 56.596 54.876H54.148ZM54.148 58.92V55.872H56.8C57.856 55.872 58.612 56.4 58.612 57.468C58.612 57.888 58.468 58.236 58.216 58.476C57.928 58.764 57.484 58.92 56.872 58.92H54.148ZM66.2849 60V53.556H65.1689V57.48C65.1689 58.476 64.5329 59.232 63.5489 59.232C62.6609 59.232 62.1449 58.752 62.1449 57.936V53.556H61.0289V57.996C61.0289 59.34 61.8809 60.144 63.2129 60.144C64.1369 60.144 64.7009 59.736 65.1569 59.1H65.1809V60H66.2849ZM67.8143 52.368H68.9783V51.072H67.8143V52.368ZM67.8383 60H68.9543V53.556H67.8383V60ZM70.5228 60H71.6388V51.072H70.5228V60ZM75.7015 60.192C76.6015 60.192 77.2855 59.772 77.6935 59.076H77.7175V60H78.8215V51.072H77.7055V53.352C77.7055 53.784 77.7175 54.252 77.7415 54.54H77.7175C77.3095 53.856 76.5895 53.4 75.6775 53.4C74.0815 53.4 72.8575 54.672 72.8575 56.796C72.8575 58.872 73.9615 60.192 75.7015 60.192ZM75.7855 59.268C74.5975 59.268 73.9975 58.224 73.9975 56.808C73.9975 55.392 74.5975 54.336 75.7855 54.336C77.0815 54.336 77.7655 55.356 77.7655 56.808C77.7655 58.224 77.1655 59.268 75.7855 59.268ZM80.3299 52.368H81.4939V51.072H80.3299V52.368ZM80.3539 60H81.4699V53.556H80.3539V60ZM84.1064 53.556H83.0024V60H84.1184V56.076C84.1184 55.044 84.8384 54.336 85.8344 54.336C86.7104 54.336 87.2504 54.804 87.2504 55.632V60H88.3544V55.5C88.3544 54.156 87.5264 53.4 86.1824 53.4C85.2464 53.4 84.6104 53.82 84.1424 54.468H84.1064V53.556ZM92.5818 62.256C93.4458 62.256 94.1658 62.064 94.6698 61.644C95.1618 61.224 95.4498 60.588 95.4498 59.736V53.556H94.3458V54.408H94.3218C93.9138 53.76 93.2898 53.4 92.3658 53.4C90.8538 53.4 89.6058 54.576 89.6058 56.556C89.6058 58.428 90.7818 59.712 92.4258 59.712C93.3378 59.712 93.9018 59.316 94.3458 58.68H94.3698C94.3578 58.884 94.3458 59.232 94.3458 59.604V59.784C94.3458 60.876 93.7098 61.392 92.5578 61.392C91.5978 61.392 90.9498 61.116 90.8538 60.444H89.8098C89.9298 61.584 90.8898 62.256 92.5818 62.256ZM92.5338 58.8C91.3698 58.8 90.7458 57.936 90.7458 56.568C90.7458 55.212 91.3458 54.324 92.5218 54.324C93.8058 54.324 94.4178 55.152 94.4178 56.508C94.4178 57.816 93.9378 58.8 92.5338 58.8Z" fill="#0F0E33"/>
<path d="M52.924 84H54.028V78.6C54.028 77.808 53.956 76.308 53.956 76.308H53.98C53.98 76.308 54.352 77.652 54.604 78.348L56.776 84H57.736L59.908 78.348C60.172 77.652 60.532 76.308 60.532 76.308H60.556C60.556 76.308 60.484 77.808 60.484 78.6V84H61.66V75.072H60.028L58.204 79.92C57.844 80.904 57.292 82.716 57.292 82.716H57.268C57.268 82.716 56.728 80.892 56.368 79.92L54.508 75.072H52.924V84ZM66.1343 84.18C67.6223 84.18 68.6543 83.364 68.9423 82.164H67.8503C67.6463 82.848 67.0343 83.268 66.1463 83.268C64.8983 83.268 64.2143 82.308 64.1303 81.048H69.0743C69.0743 79.956 68.8103 79.032 68.2823 78.396C67.7783 77.772 67.0343 77.4 66.0743 77.4C64.2263 77.4 62.9903 78.912 62.9903 80.784C62.9903 82.668 64.1543 84.18 66.1343 84.18ZM66.0743 78.264C67.1903 78.264 67.8263 79.008 67.8863 80.244H64.1543C64.2983 79.104 64.9103 78.264 66.0743 78.264ZM73.0601 84.18C74.6921 84.18 75.7121 83.256 75.8561 81.72H74.7521C74.6681 82.68 74.0681 83.268 73.0601 83.268C71.7401 83.268 71.0561 82.176 71.0561 80.784C71.0561 79.392 71.7401 78.3 73.0601 78.3C73.9961 78.3 74.5721 78.816 74.7281 79.656H75.8441C75.6161 78.276 74.6081 77.4 73.0601 77.4C71.1281 77.4 69.9161 78.912 69.9161 80.784C69.9161 82.668 71.1281 84.18 73.0601 84.18ZM78.0949 77.412V75.072H76.9789V84H78.0949V80.076C78.0949 79.044 78.8149 78.336 79.8109 78.336C80.6869 78.336 81.2269 78.804 81.2269 79.632V84H82.3309V79.5C82.3309 78.156 81.5029 77.4 80.1589 77.4C79.2229 77.4 78.5749 77.808 78.0949 78.492H78.0589C78.0709 78.18 78.0949 77.736 78.0949 77.412ZM85.7544 84.132C86.8464 84.132 87.5064 83.616 87.9144 83.052H87.9264C88.0464 83.736 88.3824 84.06 89.0664 84.06C89.3304 84.06 89.5104 84.012 89.6664 83.964V83.184H89.6184C89.0544 83.304 88.9344 83.028 88.9344 82.512V79.5C88.9344 78.636 88.6104 78.072 88.0704 77.748C87.6624 77.508 87.1224 77.4 86.5104 77.4C84.7704 77.4 83.9424 78.372 83.8944 79.464H84.9744C85.0104 78.696 85.5024 78.216 86.5224 78.216C87.4104 78.216 87.9024 78.648 87.9024 79.344C87.9024 80.004 87.2904 80.16 86.3424 80.268C84.6744 80.472 83.5704 80.796 83.5704 82.296C83.5704 83.532 84.5304 84.132 85.7544 84.132ZM86.0304 83.316C85.3824 83.316 84.7464 83.112 84.7464 82.284C84.7464 81.396 85.4424 81.204 86.4984 81.024C87.0264 80.928 87.5904 80.772 87.9144 80.568V81.624C87.9144 82.368 87.3144 83.316 86.0304 83.316ZM91.6767 77.556H90.5727V84H91.6887V80.076C91.6887 79.044 92.4087 78.336 93.4047 78.336C94.2807 78.336 94.8207 78.804 94.8207 79.632V84H95.9247V79.5C95.9247 78.156 95.0967 77.4 93.7527 77.4C92.8167 77.4 92.1807 77.82 91.7127 78.468H91.6767V77.556ZM97.4042 76.368H98.5682V75.072H97.4042V76.368ZM97.4282 84H98.5442V77.556H97.4282V84ZM102.873 84.18C104.505 84.18 105.525 83.256 105.669 81.72H104.565C104.481 82.68 103.881 83.268 102.873 83.268C101.553 83.268 100.869 82.176 100.869 80.784C100.869 79.392 101.553 78.3 102.873 78.3C103.809 78.3 104.385 78.816 104.541 79.656H105.657C105.429 78.276 104.421 77.4 102.873 77.4C100.941 77.4 99.7286 78.912 99.7286 80.784C99.7286 82.668 100.941 84.18 102.873 84.18ZM108.829 84.132C109.921 84.132 110.581 83.616 110.989 83.052H111.001C111.121 83.736 111.457 84.06 112.141 84.06C112.405 84.06 112.585 84.012 112.741 83.964V83.184H112.693C112.129 83.304 112.009 83.028 112.009 82.512V79.5C112.009 78.636 111.685 78.072 111.145 77.748C110.737 77.508 110.197 77.4 109.585 77.4C107.845 77.4 107.017 78.372 106.969 79.464H108.049C108.085 78.696 108.577 78.216 109.597 78.216C110.485 78.216 110.977 78.648 110.977 79.344C110.977 80.004 110.365 80.16 109.417 80.268C107.749 80.472 106.645 80.796 106.645 82.296C106.645 83.532 107.605 84.132 108.829 84.132ZM109.105 83.316C108.457 83.316 107.821 83.112 107.821 82.284C107.821 81.396 108.517 81.204 109.573 81.024C110.101 80.928 110.665 80.772 110.989 80.568V81.624C110.989 82.368 110.389 83.316 109.105 83.316ZM113.683 84H114.799V75.072H113.683V84Z" fill="#0F0E33"/>
<path d="M52.924 108H59.404V106.884H54.148V103.872H58.78V102.852H54.148V100.152H59.272V99.072H52.924V108ZM60.7962 108H61.9122V99.072H60.7962V108ZM66.2749 108.18C67.7629 108.18 68.7949 107.364 69.0829 106.164H67.9909C67.7869 106.848 67.1749 107.268 66.2869 107.268C65.0389 107.268 64.3549 106.308 64.2709 105.048H69.2149C69.2149 103.956 68.9509 103.032 68.4229 102.396C67.9189 101.772 67.1749 101.4 66.2149 101.4C64.3669 101.4 63.1309 102.912 63.1309 104.784C63.1309 106.668 64.2949 108.18 66.2749 108.18ZM66.2149 102.264C67.3309 102.264 67.9669 103.008 68.0269 104.244H64.2949C64.4389 103.104 65.0509 102.264 66.2149 102.264ZM73.2007 108.18C74.8327 108.18 75.8527 107.256 75.9967 105.72H74.8927C74.8087 106.68 74.2087 107.268 73.2007 107.268C71.8807 107.268 71.1967 106.176 71.1967 104.784C71.1967 103.392 71.8807 102.3 73.2007 102.3C74.1367 102.3 74.7127 102.816 74.8687 103.656H75.9847C75.7567 102.276 74.7487 101.4 73.2007 101.4C71.2687 101.4 70.0567 102.912 70.0567 104.784C70.0567 106.668 71.2687 108.18 73.2007 108.18ZM76.7236 102.42H77.7316V106.74C77.7316 107.688 78.3316 108.036 79.1956 108.048C79.4836 108.048 79.7956 108.012 80.0956 107.94V107.004H80.0596C79.9396 107.04 79.6876 107.088 79.4956 107.088C79.0876 107.088 78.8356 106.956 78.8356 106.488V102.42H80.1676V101.556H78.8356V99.528H77.7316V101.556H76.7236V102.42ZM82.4306 101.556H81.3266V108H82.4426V104.496C82.4426 103.284 83.2946 102.54 84.2906 102.54C84.4826 102.54 84.5906 102.552 84.7466 102.6H84.7826V101.544C84.6626 101.496 84.5546 101.472 84.3746 101.472C83.5226 101.472 82.8626 101.976 82.4666 102.72H82.4306V101.556ZM85.8495 100.368H87.0135V99.072H85.8495V100.368ZM85.8735 108H86.9895V101.556H85.8735V108ZM91.3179 108.18C92.9499 108.18 93.9699 107.256 94.1139 105.72H93.0099C92.9259 106.68 92.3259 107.268 91.3179 107.268C89.9979 107.268 89.3139 106.176 89.3139 104.784C89.3139 103.392 89.9979 102.3 91.3179 102.3C92.2539 102.3 92.8299 102.816 92.9859 103.656H94.1019C93.8739 102.276 92.8659 101.4 91.3179 101.4C89.3859 101.4 88.1739 102.912 88.1739 104.784C88.1739 106.668 89.3859 108.18 91.3179 108.18ZM97.2739 108.132C98.3659 108.132 99.0259 107.616 99.4339 107.052H99.4459C99.5659 107.736 99.9019 108.06 100.586 108.06C100.85 108.06 101.03 108.012 101.186 107.964V107.184H101.138C100.574 107.304 100.454 107.028 100.454 106.512V103.5C100.454 102.636 100.13 102.072 99.5899 101.748C99.1819 101.508 98.6419 101.4 98.0299 101.4C96.2899 101.4 95.4619 102.372 95.4139 103.464H96.4939C96.5299 102.696 97.0219 102.216 98.0419 102.216C98.9299 102.216 99.4219 102.648 99.4219 103.344C99.4219 104.004 98.8099 104.16 97.8619 104.268C96.1939 104.472 95.0899 104.796 95.0899 106.296C95.0899 107.532 96.0499 108.132 97.2739 108.132ZM97.5499 107.316C96.9019 107.316 96.2659 107.112 96.2659 106.284C96.2659 105.396 96.9619 105.204 98.0179 105.024C98.5459 104.928 99.1099 104.772 99.4339 104.568V105.624C99.4339 106.368 98.8339 107.316 97.5499 107.316ZM102.128 108H103.244V99.072H102.128V108Z" fill="#0F0E33"/>
<path d="M52.924 133H54.16V129.328H56.56C58.492 129.328 59.452 128.332 59.452 126.688C59.452 125.98 59.212 125.404 58.816 124.936C58.36 124.384 57.628 124.072 56.68 124.072H52.924V133ZM54.16 125.14H56.488C57.592 125.14 58.228 125.68 58.228 126.724C58.228 127.72 57.652 128.332 56.44 128.332H54.16V125.14ZM60.5735 133H61.6895V124.072H60.5735V133ZM68.4763 133V126.556H67.3603V130.48C67.3603 131.476 66.7243 132.232 65.7403 132.232C64.8523 132.232 64.3363 131.752 64.3363 130.936V126.556H63.2203V130.996C63.2203 132.34 64.0723 133.144 65.4043 133.144C66.3283 133.144 66.8923 132.736 67.3483 132.1H67.3723V133H68.4763ZM70.0297 133H71.1457V129.028C71.1457 128.044 71.9737 127.336 72.7417 127.336C73.4017 127.336 73.8457 127.804 73.8457 128.596V133H74.9497V129.028C74.9497 128.044 75.6577 127.336 76.4737 127.336C77.1217 127.336 77.6377 127.804 77.6377 128.596V133H78.7537V128.5C78.7537 127.156 77.9377 126.4 76.7617 126.4C75.9817 126.4 75.2257 126.796 74.7697 127.6H74.7457C74.4817 126.808 73.8577 126.4 73.0777 126.4C72.2497 126.4 71.5657 126.82 71.1697 127.516H71.1337V126.556H70.0297V133ZM83.4045 133.192C85.1445 133.192 86.1885 131.872 86.1885 129.796C86.1885 127.672 85.0725 126.4 83.4405 126.4C82.5045 126.4 81.7845 126.892 81.3645 127.576H81.3285C81.3405 127.3 81.3645 126.844 81.3645 126.352V124.072H80.2485V133H81.3525V132.088H81.3885C81.8085 132.808 82.5405 133.192 83.4045 133.192ZM83.2845 132.268C81.9645 132.268 81.3045 131.212 81.3045 129.808C81.3045 128.44 81.9285 127.336 83.2965 127.336C84.4725 127.336 85.0485 128.392 85.0485 129.808C85.0485 131.224 84.4725 132.268 83.2845 132.268ZM87.3495 125.368H88.5135V124.072H87.3495V125.368ZM87.3735 133H88.4895V126.556H87.3735V133ZM91.1259 126.556H90.0219V133H91.1379V129.076C91.1379 128.044 91.8579 127.336 92.8539 127.336C93.7299 127.336 94.2699 127.804 94.2699 128.632V133H95.3739V128.5C95.3739 127.156 94.5459 126.4 93.2019 126.4C92.2659 126.4 91.6299 126.82 91.1619 127.468H91.1259V126.556ZM99.6014 135.256C100.465 135.256 101.185 135.064 101.689 134.644C102.181 134.224 102.469 133.588 102.469 132.736V126.556H101.365V127.408H101.341C100.933 126.76 100.309 126.4 99.3854 126.4C97.8734 126.4 96.6254 127.576 96.6254 129.556C96.6254 131.428 97.8014 132.712 99.4454 132.712C100.357 132.712 100.921 132.316 101.365 131.68H101.389C101.377 131.884 101.365 132.232 101.365 132.604V132.784C101.365 133.876 100.729 134.392 99.5774 134.392C98.6174 134.392 97.9694 134.116 97.8734 133.444H96.8294C96.9494 134.584 97.9094 135.256 99.6014 135.256ZM99.5534 131.8C98.3894 131.8 97.7654 130.936 97.7654 129.568C97.7654 128.212 98.3654 127.324 99.5414 127.324C100.825 127.324 101.437 128.152 101.437 129.508C101.437 130.816 100.957 131.8 99.5534 131.8Z" fill="#0F0E33"/>
<rect x="16.256" y="37.256" width="125.488" height="111.488" stroke="#D5D5DB" stroke-width="0.511905"/>
<path d="M19.2745 26.0469H21.4491V22.8034L24.4222 17.2626H22.1248L21.0068 19.5354C20.7119 20.1374 20.4048 20.8746 20.4048 20.8746H20.3802C20.3802 20.8746 20.0976 20.1374 19.8028 19.5354L18.6725 17.2626H16.3013L19.2745 22.8034V26.0469ZM26.5704 24.8183C25.6981 24.8183 25.2435 24.0566 25.2435 22.914C25.2435 21.7714 25.6981 20.9974 26.5704 20.9974C27.4427 20.9974 27.9095 21.7714 27.9095 22.914C27.9095 24.0566 27.4427 24.8183 26.5704 24.8183ZM26.5827 26.2434C28.6098 26.2434 29.9367 24.806 29.9367 22.914C29.9367 21.022 28.6098 19.5846 26.5827 19.5846C24.5678 19.5846 23.2164 21.022 23.2164 22.914C23.2164 24.806 24.5678 26.2434 26.5827 26.2434ZM32.7759 26.2312C33.6482 26.2312 34.2011 25.8872 34.6556 25.2729H34.6925V26.0469H36.6091V19.7566H34.6065V23.2703C34.6065 24.0197 34.1888 24.5357 33.5008 24.5357C32.8619 24.5357 32.5548 24.1549 32.5548 23.4669V19.7566H30.5645V23.8846C30.5645 25.2852 31.3262 26.2312 32.7759 26.2312ZM37.5723 26.0469H39.5749V23.2212C39.5749 21.8574 40.3612 21.2554 41.5898 21.4274H41.6389V19.7074C41.5529 19.6706 41.4301 19.6583 41.2458 19.6583C40.4841 19.6583 39.9681 19.99 39.5258 20.7394H39.4889V19.7566H37.5723V26.0469ZM44.306 26.0469H46.5174V23.1106H48.5691C50.3751 23.1106 51.5423 21.9189 51.5423 20.2357C51.5423 19.3512 51.2228 18.6017 50.6577 18.0734C50.1171 17.5574 49.3308 17.2626 48.262 17.2626H44.306V26.0469ZM46.5174 21.3906V19.0932H48.1268C48.9008 19.0932 49.3554 19.5232 49.3554 20.2234C49.3554 20.9237 48.9131 21.3906 48.1268 21.3906H46.5174ZM55.0291 26.2312C55.8277 26.2312 56.4665 26.0223 56.9948 25.6537C57.5477 25.2729 57.9162 24.7323 58.0514 24.1672H56.0979C55.9259 24.5603 55.5819 24.7937 55.0537 24.7937C54.2305 24.7937 53.7637 24.2654 53.6408 23.4177H58.1619C58.1742 22.14 57.8057 21.0466 57.0562 20.3586C56.5157 19.8672 55.8031 19.5723 54.9062 19.5723C52.9897 19.5723 51.6751 21.0097 51.6751 22.8894C51.6751 24.7937 52.9528 26.2312 55.0291 26.2312ZM53.6531 22.226C53.7882 21.4766 54.1814 20.9974 54.9431 20.9974C55.5942 20.9974 56.0611 21.4766 56.1348 22.226H53.6531ZM58.8324 26.0469H60.835V23.2212C60.835 21.8574 61.6212 21.2554 62.8498 21.4274H62.899V19.7074C62.813 19.6706 62.6901 19.6583 62.5058 19.6583C61.7441 19.6583 61.2281 19.99 60.7858 20.7394H60.749V19.7566H58.8324V26.0469ZM63.5355 26.0469H65.5381V22.5209C65.5381 21.7714 65.9067 21.2432 66.5332 21.2432C67.1352 21.2432 67.4178 21.6363 67.4178 22.312V26.0469H69.4204V22.5209C69.4204 21.7714 69.7767 21.2432 70.4155 21.2432C71.0175 21.2432 71.3001 21.6363 71.3001 22.312V26.0469H73.3027V21.9557C73.3027 20.5429 72.5901 19.5723 71.1649 19.5723C70.3541 19.5723 69.6784 19.9163 69.1869 20.678H69.1624C68.8429 20.0023 68.2164 19.5723 67.3932 19.5723C66.4841 19.5723 65.8821 20.0023 65.4889 20.6534H65.4521V19.7566H63.5355V26.0469ZM74.2135 26.0469H76.2161V19.7566H74.2135V26.0469ZM74.2135 18.8843H76.2161V17.2626H74.2135V18.8843ZM79.671 26.1206C80.2115 26.1206 80.5924 26.0714 80.7644 26.0223V24.5603C80.6907 24.5603 80.4941 24.5726 80.3221 24.5726C79.8921 24.5726 79.6218 24.4497 79.6218 23.9583V21.0097H80.7644V19.7566H79.6218V17.7663H77.6684V19.7566H76.833V21.0097H77.6684V24.3883C77.6684 25.7397 78.5038 26.1206 79.671 26.1206ZM84.2824 26.2434C85.9287 26.2434 87.145 25.5309 87.145 24.1549C87.145 22.5454 85.8427 22.2629 84.737 22.0786C83.9384 21.9312 83.2259 21.8697 83.2259 21.4274C83.2259 21.0343 83.6067 20.85 84.0982 20.85C84.651 20.85 85.0319 21.022 85.1056 21.5872H86.9484C86.8502 20.3463 85.8919 19.5723 84.1104 19.5723C82.6239 19.5723 81.3953 20.2603 81.3953 21.5872C81.3953 23.0614 82.5624 23.3563 83.6559 23.5406C84.4913 23.688 85.253 23.7494 85.253 24.3146C85.253 24.72 84.8722 24.9412 84.2702 24.9412C83.6067 24.9412 83.189 24.634 83.1153 24.0074H81.2233C81.2847 25.3957 82.4396 26.2434 84.2824 26.2434Z" fill="#0F0E33"/>
<rect x="28" y="48" width="16" height="16" rx="8" fill="#0A7AFF"/>
<path d="M32 56L34.6156 59L40 53" stroke="white" stroke-linecap="round"/>
<rect x="28" y="72" width="16" height="16" rx="8" fill="#0A7AFF"/>
<path d="M32 80L34.6156 83L40 77" stroke="white" stroke-linecap="round"/>
<rect x="28" y="96" width="16" height="16" rx="8" fill="#0A7AFF"/>
<path d="M32 104L34.6156 107L40 101" stroke="white" stroke-linecap="round"/>
<rect x="28" y="120" width="16" height="16" rx="8" fill="#0A7AFF"/>
<path d="M32 128L34.6156 131L40 125" stroke="white" stroke-linecap="round"/>
</svg>
