<svg width="20" height="14" viewBox="0 0 20 14" fill="none" xmlns="http://www.w3.org/2000/svg">
<path fill-rule="evenodd" clip-rule="evenodd" d="M17.8136 0.418176C18.6746 0.648667 19.3514 1.32532 19.5818 2.18637C19.9983 3.74547 20 7.00033 20 7.00033C20 7.00033 20 10.2552 19.5818 11.8143C19.3514 12.6754 18.6746 13.352 17.8136 13.5825C16.2546 14.0007 9.99998 14.0007 9.99998 14.0007C9.99998 14.0007 3.74547 14.0007 2.18636 13.5825C1.32532 13.352 0.648667 12.6754 0.418176 11.8143C0 10.2552 0 7.00033 0 7.00033C0 7.00033 0 3.74547 0.418176 2.18637C0.648667 1.32532 1.32532 0.648667 2.18636 0.418176C3.74547 0 9.99998 0 9.99998 0C9.99998 0 16.2546 0 17.8136 0.418176ZM13.194 6.99969L7.99805 9.99933V4L13.194 6.99969Z" fill="white"/>
</svg>
